<mxfile host="app.diagrams.net" modified="2023-10-01T20:52:05.456Z" agent="Mozilla/5.0 (Windows NT 10.0; Win64; x64; rv:109.0) Gecko/20100101 Firefox/119.0" version="22.0.0" etag="I1iXS9bYVdy6W6VruOm2" type="github">
  <diagram name="Страница — 1" id="b5F7yGfdC8SW0DSV0_Y1">
    <mxGraphModel>
      <root>
        <mxCell id="0" />
        <mxCell id="1" parent="0" />
      </root>
    </mxGraphModel>
  </diagram>
</mxfile>
